#!OML:ASF F:\VICON\USERDATA\INSTALL\rory3\rory3.ASF
:FULLY-SPECIFIED
:DEGREES
1226
root 0.116562 17.7512 -5.07965 32.7705 -19.7817 -2.52892
lowerback 28.0506 -3.95096 -8.60775
upperback 7.26827 -7.50091 -1.1671
thorax -6.26564 -3.54716 5.97358
lowerneck -13.8704 0.102541 -5.63639
upperneck 9.02955 0.475362 6.08881
head 4.9445 0.45006 2.86094
rclavicle -5.725e-014 -1.59028e-014
rhumerus -43.9477 -39.437 -13.6879
rradius 21.8037
rwrist 15.1923
rhand -22.2925 3.66218
rfingers 7.12502
rthumb 4.12632 -26.2776
lclavicle -5.725e-014 -1.59028e-014
lhumerus 30.6694 12.8857 50.1163
lradius 30.7615
lwrist -0.941515
lhand -22.1839 12.8448
lfingers 7.12502
lthumb 4.23119 42.7825
rfemur -59.7997 18.3557 -14.6267
rtibia 24.4574
rfoot -7.44411 -10.8989
rtoes -7.36972
lfemur -48.3788 18.3669 -6.65697
ltibia 32.1063
lfoot -9.93902 15.9023
ltoes -6.79549
1227
root 0.113556 17.7364 -5.10106 33.4239 -19.843 -2.73357
lowerback 28.4573 -4.00584 -8.63479
upperback 7.45276 -7.59801 -1.17451
thorax -6.23562 -3.59785 6.03578
lowerneck -14.0211 0.195217 -5.78788
upperneck 9.12409 0.612497 6.26112
head 4.98911 0.525629 2.95369
rclavicle -6.99722e-014 -3.97569e-014
rhumerus -45.0398 -40.874 -12.8156
rradius 20.9134
rwrist 16.9517
rhand -22.4203 3.52936
rfingers 7.12502
rthumb 4.00292 -26.4128
lclavicle -6.99722e-014 -3.97569e-014
lhumerus 32.0949 12.1078 50.1698
lradius 30.0868
lwrist -1.18747
lhand -21.5734 13.2108
lfingers 7.12502
lthumb 4.8207 43.1359
rfemur -60.5595 18.1429 -14.7673
rtibia 24.4909
rfoot -7.43333 -10.9166
rtoes -6.98483
lfemur -49.1813 18.5801 -6.60696
ltibia 32.3654
lfoot -9.9826 16.0007
ltoes -6.73268
1228
root 0.108878 17.7215 -5.12196 34.0338 -19.9115 -2.85229
lowerback 28.9118 -4.05161 -8.7422
upperback 7.58073 -7.71524 -1.20025
thorax -6.27908 -3.6503 6.13752
lowerneck -14.055 0.355424 -5.64382
upperneck 9.14306 0.820633 6.10416
head 4.98862 0.62236 2.8977
rclavicle -2.54444e-014 -5.24792e-014
rhumerus -46.332 -42.238 -11.7339
rradius 20.1604
rwrist 18.5722
rhand -22.4194 3.25825
rfingers 7.12502
rthumb 4.00382 -26.6839
lclavicle -2.54444e-014 -5.24792e-014
lhumerus 33.3471 11.2236 50.1058
lradius 29.5078
lwrist -1.50625
lhand -20.2096 13.9798
lfingers 7.12502
lthumb 6.13746 43.8709
rfemur -61.2878 17.8452 -14.8814
rtibia 24.5665
rfoot -7.30248 -10.8469
rtoes -6.86693
lfemur -49.9797 18.8603 -6.70827
ltibia 32.5922
lfoot -9.87579 16.009
ltoes -6.99465
1229
root 0.101543 17.7015 -5.14863 34.7205 -19.8647 -2.96753
lowerback 29.341 -4.09053 -8.78143
upperback 7.75364 -7.79436 -1.18089
thorax -6.26601 -3.69042 6.23482
lowerneck -14.1264 0.46678 -5.6099
upperneck 8.91542 0.980549 6.06435
head 4.92017 0.700655 2.89009
rclavicle 5.40694e-014 -2.38542e-014
rhumerus -47.996 -44.0493 -10.0974
rradius 19.3408
rwrist 20.4076
rhand -22.6669 3.12054
rfingers 7.12502
rthumb 3.76481 -26.826
lclavicle 5.40694e-014 -2.38542e-014
lhumerus 34.7079 10.6511 50.5148
lradius 29.1602
lwrist -2.21322
lhand -19.1205 14.1489
lfingers 7.12502
lthumb 7.18887 44.0068
rfemur -62.1209 17.5157 -15.0325
rtibia 24.7048
rfoot -7.24297 -10.9397
rtoes -6.69603
lfemur -50.925 19.1139 -6.79157
ltibia 32.7749
lfoot -9.62142 16.0509
ltoes -7.42601
1230
root 0.0929638 17.6781 -5.17832 35.4922 -19.7636 -3.04165
lowerback 29.6806 -4.1396 -8.78332
upperback 7.96516 -7.86381 -1.16339
thorax -6.17178 -3.73283 6.29442
lowerneck -14.2646 0.568659 -5.48997
upperneck 8.51803 1.12526 5.97819
head 4.81193 0.772664 2.85113
rclavicle -8.90555e-014 1.90833e-014
rhumerus -49.8181 -45.7425 -8.35408
rradius 18.5317
rwrist 22.1655
rhand -22.7714 3.21245
rfingers 7.12502
rthumb 3.66389 -26.7358
lclavicle -8.90555e-014 1.90833e-014
lhumerus 36.1789 10.1078 50.9566
lradius 28.7331
lwrist -3.13332
lhand -18.782 13.5613
lfingers 7.12502
lthumb 7.51554 43.4078
rfemur -63.0392 17.1368 -15.2793
rtibia 24.8627
rfoot -7.24358 -11.1374
rtoes -6.76933
lfemur -51.9732 19.2785 -6.86526
ltibia 32.9282
lfoot -9.54203 16.1029
ltoes -7.19502
1231
root 0.0892764 17.6574 -5.20534 36.2416 -19.7975 -2.82004
lowerback 29.8585 -4.229 -8.96462
upperback 8.07676 -8.03436 -1.23701
thorax -6.0857 -3.8175 6.37229
lowerneck -14.1553 0.700247 -5.31151
upperneck 8.16273 1.29766 5.7809
head 4.67613 0.849291 2.7675
rclavicle -2.22639e-014 -3.81667e-014
rhumerus -51.7664 -47.1375 -6.43942
rradius 17.7856
rwrist 23.8762
rhand -22.4434 3.2688
rfingers 7.12502
rthumb 3.98055 -26.6738
lclavicle -2.22639e-014 -3.81667e-014
lhumerus 37.5574 9.00094 50.6959
lradius 27.8256
lwrist -3.41289
lhand -18.9006 12.925
lfingers 7.12502
lthumb 7.40106 42.7756
rfemur -63.9299 16.5161 -15.7472
rtibia 24.9835
rfoot -7.20218 -11.1766
rtoes -6.76722
lfemur -53.0946 19.3121 -7.29119
ltibia 33.0969
lfoot -9.57771 16.1928
ltoes -6.76388
1232
root 0.0865572 17.6444 -5.22205 36.869 -19.8392 -2.80786
lowerback 30.4876 -4.41276 -8.69028
upperback 8.0464 -8.26685 -1.5411
thorax -6.47376 -3.8906 6.02449
lowerneck -14.2578 0.840794 -4.82013
upperneck 8.28906 1.41018 5.62007
head 4.73028 0.910962 2.64862
rclavicle 1.01778e-013 0
rhumerus -53.6362 -47.7952 -5.17108
rradius 17.1945
rwrist 24.8689
rhand -22.3313 2.83754
rfingers 7.12502
rthumb 4.08885 -27.103
lclavicle 1.01778e-013 0
lhumerus 38.6089 7.50501 49.8179
lradius 27.0842
lwrist -3.37561
lhand -19.0422 12.219
lfingers 7.12502
lthumb 7.26446 42.0743
rfemur -64.6175 16.0934 -15.9557
rtibia 25.0336
rfoot -7.15639 -11.1176
rtoes -6.67402
lfemur -53.934 19.3668 -7.44148
ltibia 33.3097
lfoot -9.70485 16.307
ltoes -6.53058
1233
root 0.0855448 17.629 -5.23561 37.5816 -19.9817 -3.06359
lowerback 30.775 -4.42181 -9.00781
upperback 7.75185 -8.39748 -1.35958
thorax -6.84554 -3.91355 6.49505
lowerneck -12.2626 1.10763 -5.08472
upperneck 7.5185 1.78182 5.38588
head 4.14636 1.04672 2.61054
rclavicle 7.95139e-014 -9.54166e-015
rhumerus -54.1905 -47.3988 -4.49616
rradius 16.6921
rwrist 25.4283
rhand -22.3915 2.53685
rfingers 7.12502
rthumb 4.03069 -27.4048
lclavicle 7.95139e-014 -9.54166e-015
lhumerus 38.6576 6.53134 50.0119
lradius 26.5698
lwrist -4.08298
lhand -18.9048 11.985
lfingers 7.12502
lthumb 7.39699 41.8356
rfemur -65.3709 15.7598 -15.9106
rtibia 25.0088
rfoot -6.97597 -10.9418
rtoes -6.77225
lfemur -54.6823 19.6302 -7.38924
ltibia 33.5232
lfoot -9.75888 16.4053
ltoes -6.46549
